<svg width="108" height="96" viewBox="0 0 108 96" fill="none" xmlns="http://www.w3.org/2000/svg">
<path fill-rule="evenodd" clip-rule="evenodd" d="M54 4C79.405 4 100 24.595 100 50C100 75.405 79.405 96 54 96C28.595 96 8 75.405 8 50C8 24.595 28.595 4 54 4" fill="#F6F7F8"/>
<path fill-rule="evenodd" clip-rule="evenodd" d="M80.75 12.8828H51.279C50.757 12.8828 50.333 13.3068 50.333 13.8288V78.1708C50.333 78.6938 50.757 79.1168 51.279 79.1168H60.445V85.0168C60.445 87.6328 62.586 89.7738 65.203 89.7738H83.881C86.497 89.7738 88.639 87.6328 88.639 85.0168V79.1168H97.805C98.327 79.1168 98.75 78.6938 98.75 78.1708V30.8618L80.75 12.8828Z" fill="#F6F7F8"/>
<path fill-rule="evenodd" clip-rule="evenodd" d="M100.429 30.5613C100.38 30.1193 100.201 29.6933 99.8718 29.3653L81.9558 11.4673C81.6278 11.1393 81.2018 10.9623 80.7588 10.9133L80.7399 10.9104C80.6473 10.8963 80.5552 10.8823 80.4578 10.8823H50.9867C49.3617 10.8823 48.0407 12.2043 48.0407 13.8293V26.9263L48.0408 35.839C47.7138 35.8478 47.387 35.9488 47.1018 36.1456L45.0397 37.5685C44.4983 37.308 43.9399 37.0769 43.3667 36.8771L42.9181 34.4183C42.7683 33.597 42.0506 33 41.2131 33H34.9115C34.074 33 33.3564 33.597 33.2066 34.4183L32.758 36.8771C32.1848 37.0769 31.6264 37.308 31.0851 37.5685L29.023 36.1455C28.3344 35.6704 27.4034 35.754 26.8112 36.3443L22.3553 40.7856C21.7631 41.3759 21.6792 42.3039 22.1559 42.9902L23.5835 45.0455C23.3221 45.5851 23.0902 46.1417 22.8898 46.7131L20.4229 47.1601C19.5989 47.3094 19 48.0248 19 48.8595V55.1405C19 55.9753 19.5989 56.6906 20.4229 56.8399L22.8898 57.287C23.0902 57.8584 23.3221 58.4149 23.5835 58.9545L22.1559 61.0099C21.6792 61.6962 21.7631 62.6241 22.3553 63.2144L26.8112 67.6557C27.4034 68.246 28.3344 68.3297 29.023 67.8545L31.0851 66.4316C31.6264 66.692 32.1848 66.9232 32.758 67.1229L33.2066 69.5817C33.3564 70.403 34.074 71 34.9115 71H41.2131C42.0506 71 42.7683 70.403 42.9181 69.5817L43.3667 67.1229C43.9399 66.9232 44.4983 66.692 45.0397 66.4316L47.1018 67.8545C47.378 68.0451 47.6932 68.1458 48.0099 68.1599L48.0408 73.5V73.9243L48.0407 78.1713C48.0407 79.7963 49.3617 81.1173 50.9867 81.1173H59.7257V77.1173H52.0407V14.8823H78.5427V30.8713C78.5427 31.4033 78.7547 31.9133 79.1327 32.2893C79.5067 32.6623 80.0148 32.8713 80.5428 32.8713H80.5528L96.4588 32.7903V77.1173H88.5848V81.1173H97.5128C99.1378 81.1173 100.459 79.7963 100.459 78.1713V30.8613C100.459 30.7701 100.446 30.6827 100.434 30.5952L100.434 30.595L100.429 30.5613ZM48.0003 64.0792V58.8812L48 53.0394L48.0001 53L48.0001 46.5V44V43C48.0001 42 48.0103 41.375 48.0205 40.75C48.0247 40.493 48.0289 40.2359 48.0324 39.9528L47.8855 39.8064L46.1497 41.0041C45.6011 41.3827 44.8831 41.4137 44.3037 41.0838C43.3973 40.5677 42.421 40.1608 41.3926 39.8808C40.7491 39.7056 40.2636 39.1778 40.1443 38.5236L39.7669 36.4546H36.3578L35.9804 38.5236C35.8611 39.1778 35.3756 39.7056 34.7321 39.8808C33.7037 40.1608 32.7274 40.5676 31.821 41.0837C31.2416 41.4137 30.5237 41.3827 29.975 41.0041L28.2393 39.8064L25.8287 42.2091L27.0304 43.9391C27.4102 44.4859 27.4413 45.2016 27.1103 45.7791C26.5925 46.6825 26.1843 47.6556 25.9034 48.6806C25.7276 49.3221 25.198 49.8059 24.5417 49.9249L22.4659 50.3011V53.699L24.5417 54.0752C25.198 54.1941 25.7276 54.678 25.9034 55.3194C26.1843 56.3445 26.5925 57.3176 27.1103 58.221C27.4413 58.7985 27.4102 59.5141 27.0304 60.061L25.8287 61.791L28.2393 64.1937L29.975 62.996C30.5236 62.6174 31.2416 62.5864 31.821 62.9163C32.7274 63.4324 33.7037 63.8392 34.7321 64.1192C35.3756 64.2945 35.8611 64.8223 35.9804 65.4765L36.3578 67.5455H39.7669L40.1443 65.4765C40.2636 64.8223 40.7491 64.2945 41.3926 64.1192C42.421 63.8392 43.3973 63.4324 44.3037 62.9163C44.8831 62.5864 45.6011 62.6173 46.1497 62.9959L47.8855 64.1937L48.0003 64.0792ZM82.8353 28.8613V17.7083L93.9433 28.8043L82.8353 28.8613ZM38.0623 45.0909C34.234 45.0909 31.1306 48.1842 31.1306 52C31.1306 55.8158 34.234 58.9091 38.0623 58.9091C41.8906 58.9091 44.9941 55.8158 44.9941 52C44.9941 48.1842 41.8906 45.0909 38.0623 45.0909ZM34.5965 52C34.5965 50.0921 36.1482 48.5455 38.0623 48.5455C39.9765 48.5455 41.5282 50.0921 41.5282 52C41.5282 53.9079 39.9765 55.4546 38.0623 55.4546C36.1482 55.4546 34.5965 53.9079 34.5965 52Z" fill="#B2BBC0"/>
<path fill-rule="evenodd" clip-rule="evenodd" d="M77.2029 76.456C77.2029 74.986 76.0119 73.795 74.5419 73.795C73.0709 73.795 71.8799 74.986 71.8799 76.456C71.8799 77.242 72.2269 77.942 72.7689 78.43V80.885C72.7689 81.869 73.5669 82.666 74.5509 82.666C75.5339 82.666 76.3319 81.869 76.3319 80.885V78.414C76.8629 77.928 77.2029 77.234 77.2029 76.456" fill="#F02525"/>
<path fill-rule="evenodd" clip-rule="evenodd" d="M86.6378 85.0167C86.6378 86.5377 85.4018 87.7737 83.8808 87.7737H65.2028C63.6828 87.7737 62.4458 86.5377 62.4458 85.0167V71.6567C62.4458 70.1357 63.6828 68.8997 65.2028 68.8997H83.8808C85.4018 68.8997 86.6378 70.1357 86.6378 71.6567V85.0167ZM74.5418 55.6487C79.3098 55.6487 83.1888 59.5277 83.1888 64.2957V64.8997H65.8958V64.2957C65.8958 59.5277 69.7748 55.6487 74.5418 55.6487V55.6487ZM87.1888 65.7707V64.2957C87.1888 57.3227 81.5158 51.6487 74.5418 51.6487C67.5688 51.6487 61.8958 57.3227 61.8958 64.2957V65.7707C59.8388 66.9307 58.4458 69.1317 58.4458 71.6567V85.0167C58.4458 88.7427 61.4768 91.7737 65.2028 91.7737H83.8808C87.6068 91.7737 90.6378 88.7427 90.6378 85.0167V71.6567C90.6378 69.1327 89.2438 66.9307 87.1888 65.7707V65.7707Z" fill="#F02525"/>
</svg>
