<svg width="108" height="96" viewBox="0 0 108 96" fill="none" xmlns="http://www.w3.org/2000/svg">
<path d="M100 50C100 24.595 79.405 4 54 4C28.595 4 8 24.595 8 50C8 75.405 28.595 96 54 96C58.7079 96 63.2507 95.2927 67.5278 93.9786C64.1205 90.7035 62 86.0994 62 81C62 71.0589 70.0589 63 80 63C86.2294 63 91.7198 66.1645 94.9512 70.9736C98.1787 64.6845 100 57.5549 100 50Z" fill="#F6F7F8"/>
<path fill-rule="evenodd" clip-rule="evenodd" d="M89.94 71.06C87.28 68.54 83.78 67 80 67C76.22 67 72.72 68.4 70.06 71.06C67.54 73.72 66 77.22 66 81C66 84.78 67.4 88.28 70.06 90.94C72.72 93.46 76.22 95 80 95C87.7 95 94 88.7 94 81C94 77.22 92.6 73.72 89.94 71.06ZM79.9999 69.8C73.8399 69.8 68.7999 74.84 68.7999 81C68.7999 83.52 69.6399 85.9 71.1799 87.86L86.8599 72.18C84.8999 70.64 82.5199 69.8 79.9999 69.8ZM80.0001 92.2C86.1601 92.2 91.2001 87.16 91.2001 81C91.2001 78.34 90.3601 75.96 88.8201 74.14L73.1401 89.82C74.9601 91.22 77.3401 92.2 80.0001 92.2Z" fill="#F02525"/>
<path d="M53.5894 32.4572L54.7872 31.297C59.1842 26.9024 66.3103 26.9024 70.7052 31.2974C74.9835 35.5756 75.0991 42.4375 71.0523 46.8552L70.7055 47.2176L64.6689 53.2562C60.2739 57.6487 53.1462 57.6487 48.7508 53.2558C48.3264 52.8314 47.9388 52.3767 47.5923 51.8975C46.9451 51.0024 47.1461 49.7521 48.0411 49.1049C48.9362 48.4577 50.1865 48.6586 50.8337 49.5537C51.0556 49.8605 51.305 50.1531 51.5789 50.427C54.3107 53.1573 58.6821 53.2549 61.5305 50.7201L61.8406 50.4276L67.8768 44.3894C70.7118 41.5544 70.7118 36.9608 67.8768 34.1258C65.145 31.394 60.7757 31.2964 57.9053 33.853L57.5927 34.148L56.3727 35.33C55.5794 36.0986 54.3132 36.0786 53.5446 35.2853C52.8352 34.553 52.7976 33.4178 53.42 32.643L53.5894 32.4572Z" fill="#B2BBC0"/>
<path d="M43.3347 42.7514C47.7297 38.3565 54.8577 38.3565 59.2551 42.7514C59.5656 43.0619 59.8553 43.3875 60.1252 43.7285C60.8107 44.5947 60.6642 45.8525 59.798 46.538C58.9319 47.2234 57.674 47.0769 56.9886 46.2108C56.8145 45.9908 56.6277 45.7808 56.4271 45.5803C53.6934 42.848 49.3222 42.7505 46.473 45.2874L46.1629 45.5801L40.1255 51.6155C37.292 54.4505 37.292 59.0448 40.1251 61.8794C42.8588 64.6131 47.2279 64.7108 50.07 62.1807L50.3794 61.8888L51.8854 60.3628C52.6613 59.5766 53.9276 59.5683 54.7138 60.3441C55.4395 61.0603 55.5024 62.1944 54.8976 62.983L54.7324 63.1725L53.2171 64.7079C48.8201 69.1049 41.6937 69.1049 37.2963 64.7075C33.0205 60.4294 32.905 53.568 36.9502 49.1496L37.2969 48.7872L43.3347 42.7514Z" fill="#B2BBC0"/>
</svg>
