<svg width="72" height="16" viewBox="0 0 72 16" fill="none" xmlns="http://www.w3.org/2000/svg">
<circle cx="2" cy="8" r="2" fill="#E2E3E3"/>
<circle cx="10" cy="8" r="2" fill="#E2E3E3"/>
<circle cx="18" cy="8" r="2" fill="#E2E3E3"/>
<circle cx="54" cy="8" r="2" fill="#E2E3E3"/>
<circle cx="62" cy="8" r="2" fill="#E2E3E3"/>
<circle cx="70" cy="8" r="2" fill="#E2E3E3"/>
<path fill-rule="evenodd" clip-rule="evenodd" d="M34.3266 5.82063L31.9274 4.87296C31.4508 4.6853 31.2134 4.14954 31.3935 3.67102L32.2924 1.27464C32.4332 0.898383 32.7916 0.666626 33.1706 0.666626C33.2804 0.666626 33.3921 0.685392 33.5009 0.725738C33.9851 0.907766 34.2309 1.44916 34.0498 1.93425L33.941 2.22512C34.488 2.07499 35.0575 1.9943 35.6308 1.9943H35.643C37.8893 1.99899 39.9892 3.20938 41.1226 5.15163C41.3835 5.59825 41.2333 6.17342 40.7848 6.43427C40.3382 6.69511 39.763 6.54404 39.5022 6.09742C38.7028 4.72752 37.2231 3.87462 35.6393 3.87087H35.6308C35.3315 3.87087 35.035 3.91028 34.7432 3.96845L35.0153 4.07542C35.4976 4.26589 35.734 4.81103 35.5436 5.29237C35.3531 5.77559 34.8061 6.0111 34.3266 5.82063ZM38.2573 9.58732L40.6565 10.535C41.1332 10.7226 41.3706 11.2584 41.1904 11.7369L40.2915 14.1333C40.1508 14.5096 39.7924 14.7413 39.4133 14.7413C39.3035 14.7413 39.1919 14.7226 39.083 14.6822C38.5989 14.5002 38.3531 13.9588 38.5341 13.4737L38.643 13.1828C38.096 13.333 37.5264 13.4136 36.9531 13.4136H36.9409C34.6947 13.409 32.5948 12.1986 31.4613 10.2563C31.2005 9.80969 31.3506 9.23452 31.7991 8.97368C32.2458 8.71284 32.8209 8.8639 33.0818 9.31052C33.8812 10.6804 35.3609 11.5333 36.9447 11.5371H36.9531C37.2524 11.5371 37.5489 11.4977 37.8407 11.4395L37.5686 11.3325C37.0864 11.1421 36.8499 10.5969 37.0404 10.1156C37.2309 9.63235 37.7779 9.39684 38.2573 9.58732Z" fill="#B2BBC0"/>
</svg>
