<svg width="64" height="64" viewBox="0 0 64 64" fill="none" xmlns="http://www.w3.org/2000/svg">
<g clip-path="url(#clip0_646_527)">
<path d="M18.3183 33.0883H46.1475V54.0164C46.1475 56.0712 44.5134 57.737 42.4978 57.737H21.968C19.9523 57.737 18.3183 56.0712 18.3183 54.0164V33.0883Z" fill="#EEEFF0"/>
<path fill-rule="evenodd" clip-rule="evenodd" d="M17.5231 11.8188C17.5231 9.51337 19.4048 7.64444 21.7259 7.64444H42.7398C45.0609 7.64444 46.9426 9.51337 46.9426 11.8188V53.5626C46.9426 55.8681 45.0609 57.737 42.7398 57.737H21.7259C19.4048 57.737 17.5231 55.8681 17.5231 53.5626V11.8188ZM21.7259 8.57208C19.9206 8.57208 18.4571 10.0257 18.4571 11.8188V53.5626C18.4571 55.3557 19.9206 56.8094 21.7259 56.8094H42.7398C44.5451 56.8094 46.0086 55.3557 46.0086 53.5626V11.8188C46.0086 10.0257 44.5451 8.57208 42.7398 8.57208H21.7259Z" fill="#A1A3A7" stroke="#A1A3A7" stroke-width="2"/>
<path d="M35.811 15.9932C35.811 17.9693 34.209 19.5712 32.2329 19.5712C30.2568 19.5712 28.6549 17.9693 28.6549 15.9932C28.6549 14.0171 30.2568 12.4151 32.2329 12.4151C34.209 12.4151 35.811 14.0171 35.811 15.9932Z" fill="#121312"/>
<path d="M35.8109 25.5346C35.8109 27.5107 34.209 29.1127 32.2329 29.1127C30.2568 29.1127 28.6548 27.5107 28.6548 25.5346C28.6548 23.5585 30.2568 21.9566 32.2329 21.9566C34.209 21.9566 35.8109 23.5585 35.8109 25.5346Z" fill="#A1A3A7"/>
<path d="M34.2207 15.9932C34.2207 17.091 33.3307 17.981 32.2329 17.981C31.135 17.981 30.2451 17.091 30.2451 15.9932C30.2451 14.8954 31.135 14.0054 32.2329 14.0054C33.3307 14.0054 34.2207 14.8954 34.2207 15.9932Z" fill="#121312"/>
</g>
<defs>
<clipPath id="clip0_646_527">
<rect width="64" height="64" fill="white"/>
</clipPath>
</defs>
</svg>
