<svg width="24" height="24" viewBox="0 0 24 24" fill="none" xmlns="http://www.w3.org/2000/svg">
<g id="24 px / Eye Off">
<g id="Group 2">
<path id="Fill 1" fill-rule="evenodd" clip-rule="evenodd" d="M9.29251 7.455C10.1515 7.168 11.0585 7 11.9995 7C15.3535 7 18.3475 8.938 19.8235 12C19.1805 13.334 18.2365 14.436 17.1135 15.277L18.5425 16.706C20.0725 15.495 21.2805 13.875 21.9995 12C20.4275 7.902 16.5455 5 11.9995 5C10.4865 5 9.05051 5.328 7.74451 5.908L9.29251 7.455Z" fill="#B2B5B2"/>
<path id="Fill 3" fill-rule="evenodd" clip-rule="evenodd" d="M11.8374 10.0009C11.8924 9.99689 11.9444 9.98389 12.0014 9.98389C13.1044 9.98389 14.0014 10.8819 14.0014 11.9839C14.0014 12.0409 13.9884 12.0929 13.9834 12.1469L15.5774 13.7409C15.8404 13.2089 16.0014 12.6179 16.0014 11.9839C16.0014 9.77489 14.2104 7.98389 12.0014 7.98389C11.3674 7.98389 10.7764 8.14589 10.2444 8.40689L11.8374 10.0009Z" fill="#B2B5B2"/>
<path id="Fill 5" fill-rule="evenodd" clip-rule="evenodd" d="M11.9995 17C8.64651 17 5.65251 15.062 4.17751 12C4.60451 11.113 5.17151 10.334 5.82651 9.65595L8.01251 11.842C8.01051 11.89 8.00151 11.936 8.00151 11.984C8.00151 14.194 9.79251 15.984 12.0015 15.984C12.0505 15.984 12.0965 15.976 12.1445 15.974L13.0905 16.919C12.7315 16.967 12.3695 17 11.9995 17ZM17.8165 18.817L4.76251 5.76395C4.37151 5.37295 3.73851 5.37295 3.34851 5.76395C2.95751 6.15395 2.95751 6.78695 3.34851 7.17795L4.42251 8.25195C3.38751 9.31395 2.54651 10.577 1.99951 12C3.57251 16.098 7.45451 19 11.9995 19C12.9645 19 13.8945 18.856 14.7825 18.611L16.4025 20.231C16.5985 20.427 16.8535 20.524 17.1095 20.524C17.3655 20.524 17.6215 20.427 17.8165 20.231C18.2075 19.841 18.2075 19.208 17.8165 18.817Z" fill="#B2B5B2"/>
</g>
</g>
</svg>
