<svg width="64" height="64" viewBox="0 0 64 64" fill="none" xmlns="http://www.w3.org/2000/svg">
<g clip-path="url(#clip0_648_518)">
<path fill-rule="evenodd" clip-rule="evenodd" d="M32 13.2941C42.5583 13.2941 51.1177 21.8534 51.1177 32.4118C51.1177 42.9697 42.5583 51.5294 32 51.5294C21.4421 51.5294 12.8824 42.9697 12.8824 32.4118C12.8824 21.8534 21.4421 13.2941 32 13.2941" fill="#EEEFF0"/>
<path fill-rule="evenodd" clip-rule="evenodd" d="M51.0707 15.2059C51.3016 15.2059 51.5188 15.31 51.6633 15.4872L51.7009 15.5373L57.24 23.5927C57.3409 23.7395 57.3823 23.9016 57.3751 24.0579L57.3678 24.1334L57.3665 24.1422C57.3592 24.1884 57.3477 24.2337 57.3322 24.2777L57.3022 24.3508L44.9925 50.5887L44.9684 50.6342C44.8386 50.8625 44.6182 50.9888 44.3881 51.0131C44.3563 51.0165 44.324 51.018 44.2915 51.0173L44.2271 51.0135L44.1777 51.0067C43.9651 50.9719 43.7656 50.8487 43.6442 50.6373L43.6131 50.5775L31.3049 24.342C31.2085 24.1304 31.2062 23.8751 31.336 23.6487L31.3712 23.5927L36.9107 15.5373C37.0415 15.3471 37.2504 15.2271 37.4782 15.2084L37.5408 15.2059H51.0707ZM49.2716 24.7903H39.3388L44.3052 46.7814L49.2716 24.7903ZM33.2045 24.7904L37.7712 24.7903L42.0104 43.5604L33.2045 24.7904ZM55.4062 24.7904L50.8396 24.7903L46.6008 43.5585L55.4062 24.7904ZM37.943 16.735L40.6736 16.7349L37.8783 23.2609L33.4553 23.261L37.943 16.735ZM46.2736 16.7349H42.3376L39.5419 23.2609H49.0686L46.2736 16.7349ZM47.9373 16.7349L50.6682 16.735L55.1558 23.261L50.7323 23.2609L47.9373 16.7349Z" fill="#A1A3A7"/>
<path d="M31.2357 19.4118C30.8385 19.4118 30.49 19.6731 30.3782 20.0531L30.3123 20.279C29.7376 22.2132 29.3458 22.5518 27.2937 23.1417C26.9122 23.2503 26.647 23.6006 26.647 24C26.647 24.3982 26.9107 24.7465 27.2906 24.8575L27.5163 24.9233C29.4483 25.4973 29.787 25.8892 30.3769 27.9419C30.4893 28.3269 30.8391 28.5878 31.2357 28.5878C31.6329 28.5878 31.9846 28.3249 32.0941 27.9401L32.1921 27.6074C32.7484 25.7737 33.1636 25.4367 35.1771 24.8584C35.5612 24.747 35.8235 24.3974 35.8235 24C35.8235 23.6014 35.5598 23.2498 35.1739 23.1407L34.8415 23.0428C33.0094 22.487 32.6724 22.0716 32.0936 20.0577C31.9839 19.6752 31.6335 19.4118 31.2357 19.4118Z" fill="#121312"/>
<path fill-rule="evenodd" clip-rule="evenodd" d="M20.5294 21.7059C20.5294 19.5942 18.8176 17.8824 16.7059 17.8824C14.5942 17.8824 12.8824 19.5942 12.8824 21.7059C12.8824 23.8176 14.5942 25.5294 16.7059 25.5294C18.8176 25.5294 20.5294 23.8176 20.5294 21.7059ZM14.4117 21.7059C14.4117 20.4389 15.4388 19.4118 16.7058 19.4118C17.9729 19.4118 19 20.4389 19 21.7059C19 22.9729 17.9729 24 16.7058 24C15.4388 24 14.4117 22.9729 14.4117 21.7059Z" fill="#A1A3A7"/>
<path fill-rule="evenodd" clip-rule="evenodd" d="M29.0348 39.0406C29.0318 39.1647 28.9979 39.2907 28.9278 39.4078L28.8918 39.4629L20.2278 50.8278C19.9345 51.2126 19.3674 51.2286 19.0513 50.8759L19.0115 50.8278L10.3749 39.4989C10.3609 39.4813 10.3476 39.463 10.3351 39.4443C10.2367 39.2982 10.1972 39.1364 10.2059 38.9804C10.2111 38.8662 10.2428 38.7508 10.3049 38.6425C10.3244 38.6086 10.3459 38.5763 10.3698 38.5457L13.8995 33.7767C14.0306 33.5996 14.231 33.4885 14.4484 33.4697L14.5141 33.4669H25.0751C25.3094 33.4669 25.5295 33.5742 25.6738 33.7559L25.7112 33.8072L28.9254 38.6268C28.9964 38.7449 29.0309 38.8709 29.0346 38.9948L29.0348 39.0406ZM26.7235 39.7838H12.5153L19.6198 49.103L26.7235 39.7838ZM14.8997 34.9961H24.6657L26.839 38.2541H12.4882L14.8997 34.9961Z" fill="#121312"/>
</g>
<defs>
<clipPath id="clip0_648_518">
<rect width="64" height="64" fill="white"/>
</clipPath>
</defs>
</svg>
