<svg width="24" height="24" viewBox="0 0 24 24" fill="none" xmlns="http://www.w3.org/2000/svg">
<g id="24 px / Eye">
<g id="Group 2">
<path id="Fill 1" fill-rule="evenodd" clip-rule="evenodd" d="M12.0002 5C7.45421 5 3.57221 7.902 2.00021 12C3.57221 16.098 7.45421 19 12.0002 19C16.5452 19 20.4272 16.098 22.0002 12C20.4272 7.902 16.5452 5 12.0002 5M12.0002 7C15.3532 7 18.3472 8.938 19.8232 12C18.3472 15.062 15.3532 17 12.0002 17C8.64621 17 5.65221 15.062 4.17721 12C5.65221 8.938 8.64621 7 12.0002 7" fill="#B2B5B2"/>
<path id="Fill 4" fill-rule="evenodd" clip-rule="evenodd" d="M12.0012 7.98438C9.79119 7.98438 8.00119 9.77537 8.00119 11.9844C8.00119 14.1944 9.79119 15.9844 12.0012 15.9844C14.2102 15.9844 16.0012 14.1944 16.0012 11.9844C16.0012 9.77537 14.2102 7.98438 12.0012 7.98438M12.0012 9.98438C13.1042 9.98438 14.0012 10.8814 14.0012 11.9844C14.0012 13.0884 13.1042 13.9844 12.0012 13.9844C10.8982 13.9844 10.0012 13.0884 10.0012 11.9844C10.0012 10.8814 10.8982 9.98438 12.0012 9.98438" fill="#B2B5B2"/>
</g>
</g>
</svg>
